<svg width="321" height="213" viewBox="0 0 321 213" fill="none" xmlns="http://www.w3.org/2000/svg">
<path d="M67.3538 105.172V117H7.22762V106.835L36.4282 74.9856C39.6317 71.3715 42.1575 68.2502 44.0056 65.6217C45.8537 62.9933 47.1474 60.6317 47.8867 58.5372C48.667 56.4016 49.0572 54.3275 49.0572 52.3151C49.0572 49.4813 48.5233 46.9966 47.4555 44.861C46.4287 42.6843 44.9091 40.9799 42.8967 39.7478C40.8843 38.4746 38.4406 37.838 35.5658 37.838C32.2391 37.838 29.4464 38.5567 27.1875 39.9942C24.9287 41.4316 23.2243 43.4235 22.0743 45.9698C20.9244 48.4751 20.3494 51.35 20.3494 54.5945H5.50269C5.50269 49.3786 6.69372 44.6145 9.07576 40.3022C11.4578 35.9488 14.9077 32.499 19.4253 29.9526C23.943 27.3652 29.3848 26.0715 35.7506 26.0715C41.7468 26.0715 46.8394 27.0777 51.0285 29.0902C55.2176 31.1026 58.4006 33.9569 60.5773 37.6532C62.795 41.3495 63.9039 45.7234 63.9039 50.775C63.9039 53.5677 63.4521 56.34 62.5486 59.0916C61.6451 61.8433 60.3514 64.595 58.6675 67.3467C57.0247 70.0573 55.0739 72.7884 52.8151 75.5401C50.5562 78.2507 48.0715 81.0023 45.3609 83.7951L25.9554 105.172H67.3538ZM94.5214 75.2937L82.6933 72.3982L87.5601 27.3036H135.92V39.871H99.881L97.4168 61.8638C98.8132 61.0424 100.743 60.2416 103.208 59.4613C105.672 58.6399 108.485 58.2292 111.648 58.2292C115.878 58.2292 119.656 58.9273 122.983 60.3237C126.35 61.679 129.205 63.6709 131.546 66.2994C133.887 68.8868 135.673 72.0491 136.905 75.7865C138.138 79.4828 138.754 83.6513 138.754 88.2922C138.754 92.4403 138.138 96.3214 136.905 99.9355C135.714 103.55 133.907 106.733 131.484 109.484C129.061 112.236 126.001 114.392 122.305 115.953C118.65 117.472 114.317 118.232 109.307 118.232C105.569 118.232 101.976 117.698 98.5257 116.63C95.1169 115.521 92.0572 113.899 89.3466 111.764C86.636 109.587 84.4593 106.917 82.8165 103.755C81.1737 100.552 80.2291 96.8758 79.9827 92.7278H94.5214C94.891 95.6437 95.6919 98.1284 96.924 100.182C98.1972 102.194 99.881 103.734 101.976 104.802C104.07 105.87 106.493 106.404 109.245 106.404C111.75 106.404 113.906 105.973 115.713 105.11C117.52 104.207 119.02 102.934 120.211 101.291C121.443 99.607 122.346 97.6356 122.921 95.3768C123.537 93.1179 123.845 90.6127 123.845 87.861C123.845 85.2325 123.496 82.83 122.798 80.6533C122.141 78.4766 121.135 76.5873 119.779 74.9856C118.465 73.3839 116.802 72.1518 114.789 71.2893C112.777 70.3858 110.456 69.934 107.828 69.934C104.296 69.934 101.585 70.4474 99.6962 71.4742C97.8481 72.5009 96.1231 73.7741 94.5214 75.2937ZM151.691 109.607C151.691 107.308 152.471 105.377 154.032 103.817C155.592 102.215 157.707 101.414 160.377 101.414C163.087 101.414 165.202 102.215 166.722 103.817C168.283 105.377 169.063 107.308 169.063 109.607C169.063 111.907 168.283 113.838 166.722 115.398C165.202 116.959 163.087 117.739 160.377 117.739C157.707 117.739 155.592 116.959 154.032 115.398C152.471 113.838 151.691 111.907 151.691 109.607ZM151.752 57.1203C151.752 54.8204 152.532 52.8901 154.093 51.3294C155.654 49.7277 157.769 48.9269 160.438 48.9269C163.149 48.9269 165.264 49.7277 166.784 51.3294C168.344 52.8901 169.125 54.8204 169.125 57.1203C169.125 59.4202 168.344 61.3505 166.784 62.9111C165.264 64.4718 163.149 65.2521 160.438 65.2521C157.769 65.2521 155.654 64.4718 154.093 62.9111C152.532 61.3505 151.752 59.4202 151.752 57.1203ZM242.373 64.636V79.298C242.373 86.3209 241.674 92.3171 240.278 97.2865C238.923 102.215 236.951 106.219 234.364 109.299C231.777 112.38 228.676 114.638 225.062 116.076C221.489 117.513 217.484 118.232 213.049 118.232C209.517 118.232 206.231 117.78 203.192 116.877C200.194 115.973 197.483 114.556 195.06 112.626C192.637 110.696 190.563 108.211 188.838 105.172C187.154 102.092 185.84 98.4159 184.895 94.1447C183.992 89.8734 183.54 84.9245 183.54 79.298V64.636C183.54 57.572 184.238 51.6169 185.635 46.7707C187.031 41.8834 189.023 37.9202 191.61 34.881C194.198 31.8008 197.278 29.5625 200.851 28.1661C204.465 26.7697 208.49 26.0715 212.926 26.0715C216.499 26.0715 219.784 26.5233 222.782 27.4268C225.821 28.2893 228.532 29.6651 230.914 31.5543C233.337 33.4436 235.391 35.9077 237.075 38.9469C238.8 41.945 240.114 45.5797 241.017 49.8509C241.921 54.0811 242.373 59.0095 242.373 64.636ZM227.526 81.3925V62.4183C227.526 58.8452 227.321 55.7034 226.91 52.9928C226.499 50.2411 225.883 47.9206 225.062 46.0314C224.281 44.1012 223.296 42.5405 222.105 41.3495C220.914 40.1174 219.558 39.2344 218.039 38.7005C216.519 38.1255 214.815 37.838 212.926 37.838C210.626 37.838 208.572 38.2898 206.765 39.1933C204.958 40.0558 203.438 41.4522 202.206 43.3824C200.974 45.3127 200.03 47.859 199.373 51.0214C198.756 54.1427 198.448 57.9417 198.448 62.4183V81.3925C198.448 85.0067 198.654 88.1896 199.065 90.9412C199.475 93.6929 200.091 96.0544 200.913 98.0258C201.734 99.956 202.72 101.558 203.87 102.831C205.061 104.063 206.416 104.967 207.936 105.542C209.496 106.117 211.201 106.404 213.049 106.404C215.39 106.404 217.464 105.952 219.271 105.049C221.078 104.145 222.597 102.708 223.83 100.736C225.062 98.724 225.986 96.116 226.602 92.9126C227.218 89.7091 227.526 85.8691 227.526 81.3925ZM314.08 64.636V79.298C314.08 86.3209 313.382 92.3171 311.986 97.2865C310.631 102.215 308.659 106.219 306.072 109.299C303.484 112.38 300.384 114.638 296.769 116.076C293.196 117.513 289.192 118.232 284.757 118.232C281.225 118.232 277.939 117.78 274.9 116.877C271.902 115.973 269.191 114.556 266.768 112.626C264.345 110.696 262.271 108.211 260.546 105.172C258.862 102.092 257.548 98.4159 256.603 94.1447C255.7 89.8734 255.248 84.9245 255.248 79.298V64.636C255.248 57.572 255.946 51.6169 257.343 46.7707C258.739 41.8834 260.731 37.9202 263.318 34.881C265.906 31.8008 268.986 29.5625 272.559 28.1661C276.173 26.7697 280.198 26.0715 284.633 26.0715C288.206 26.0715 291.492 26.5233 294.49 27.4268C297.529 28.2893 300.24 29.6651 302.622 31.5543C305.045 33.4436 307.099 35.9077 308.782 38.9469C310.507 41.945 311.822 45.5797 312.725 49.8509C313.629 54.0811 314.08 59.0095 314.08 64.636ZM299.234 81.3925V62.4183C299.234 58.8452 299.028 55.7034 298.618 52.9928C298.207 50.2411 297.591 47.9206 296.769 46.0314C295.989 44.1012 295.003 42.5405 293.812 41.3495C292.621 40.1174 291.266 39.2344 289.747 38.7005C288.227 38.1255 286.523 37.838 284.633 37.838C282.333 37.838 280.28 38.2898 278.473 39.1933C276.666 40.0558 275.146 41.4522 273.914 43.3824C272.682 45.3127 271.737 47.859 271.08 51.0214C270.464 54.1427 270.156 57.9417 270.156 62.4183V81.3925C270.156 85.0067 270.362 88.1896 270.772 90.9412C271.183 93.6929 271.799 96.0544 272.62 98.0258C273.442 99.956 274.428 101.558 275.577 102.831C276.769 104.063 278.124 104.967 279.643 105.542C281.204 106.117 282.908 106.404 284.757 106.404C287.098 106.404 289.172 105.952 290.979 105.049C292.786 104.145 294.305 102.708 295.537 100.736C296.769 98.724 297.694 96.116 298.31 92.9126C298.926 89.7091 299.234 85.8691 299.234 81.3925Z" fill="#323238"/>
<path d="M22.18 199.2L38.2 189L22.18 178.8V199.2ZM28 213C24.72 213 21.62 212.37 18.7 211.11C15.78 209.85 13.23 208.13 11.05 205.95C8.87 203.77 7.15 201.22 5.89 198.3C4.63 195.38 4 192.28 4 189C4 185.72 4.63 182.62 5.89 179.7C7.15 176.78 8.87 174.23 11.05 172.05C13.23 169.87 15.78 168.15 18.7 166.89C21.62 165.63 24.72 165 28 165C31.28 165 34.38 165.63 37.3 166.89C40.22 168.15 42.77 169.87 44.95 172.05C47.13 174.23 48.85 176.78 50.11 179.7C51.37 182.62 52 185.72 52 189C52 192.28 51.37 195.38 50.11 198.3C48.85 201.22 47.13 203.77 44.95 205.95C42.77 208.13 40.22 209.85 37.3 211.11C34.38 212.37 31.28 213 28 213ZM28 209.4C33.6 209.4 38.4 207.4 42.4 203.4C46.4 199.4 48.4 194.6 48.4 189C48.4 183.4 46.4 178.6 42.4 174.6C38.4 170.6 33.6 168.6 28 168.6C22.4 168.6 17.6 170.6 13.6 174.6C9.6 178.6 7.6 183.4 7.6 189C7.6 194.6 9.6 199.4 13.6 203.4C17.6 207.4 22.4 209.4 28 209.4Z" fill="#323238"/>
<path d="M116 213C112.6 213 109.44 212.39 106.52 211.17C103.6 209.95 101.06 208.26 98.9 206.1C96.74 203.94 95.05 201.4 93.83 198.48C92.61 195.56 92 192.4 92 189C92 185.64 92.61 182.5 93.83 179.58C95.05 176.66 96.74 174.12 98.9 171.96C101.06 169.8 103.6 168.1 106.52 166.86C109.44 165.62 112.6 165 116 165C119.36 165 122.5 165.62 125.42 166.86C128.34 168.1 130.88 169.8 133.04 171.96C135.2 174.12 136.9 176.66 138.14 179.58C139.38 182.5 140 185.64 140 189C140 192.4 139.38 195.56 138.14 198.48C136.9 201.4 135.2 203.94 133.04 206.1C130.88 208.26 128.34 209.95 125.42 211.17C122.5 212.39 119.36 213 116 213ZM116 209.4C121.8 209.4 126.65 207.45 130.55 203.55C134.45 199.65 136.4 194.8 136.4 189C136.4 183.2 134.45 178.35 130.55 174.45C126.65 170.55 121.8 168.6 116 168.6C110.2 168.6 105.35 170.55 101.45 174.45C97.55 178.35 95.6 183.2 95.6 189C95.6 194.8 97.55 199.65 101.45 203.55C105.35 207.45 110.2 209.4 116 209.4ZM107 198H125V180H107V198Z" fill="#323238"/>
<path d="M202.38 201H205.98V191.04H216V187.44H205.98V177H202.38V187.44H192V191.04H202.38V201ZM204 213C200.6 213 197.44 212.39 194.52 211.17C191.6 209.95 189.06 208.26 186.9 206.1C184.74 203.94 183.05 201.4 181.83 198.48C180.61 195.56 180 192.4 180 189C180 185.64 180.61 182.5 181.83 179.58C183.05 176.66 184.74 174.12 186.9 171.96C189.06 169.8 191.6 168.1 194.52 166.86C197.44 165.62 200.6 165 204 165C207.36 165 210.5 165.62 213.42 166.86C216.34 168.1 218.88 169.8 221.04 171.96C223.2 174.12 224.9 176.66 226.14 179.58C227.38 182.5 228 185.64 228 189C228 192.4 227.38 195.56 226.14 198.48C224.9 201.4 223.2 203.94 221.04 206.1C218.88 208.26 216.34 209.95 213.42 211.17C210.5 212.39 207.36 213 204 213ZM204 209.4C209.6 209.4 214.4 207.4 218.4 203.4C222.4 199.4 224.4 194.6 224.4 189C224.4 183.4 222.4 178.6 218.4 174.6C214.4 170.6 209.6 168.6 204 168.6C198.4 168.6 193.6 170.6 189.6 174.6C185.6 178.6 183.6 183.4 183.6 189C183.6 194.6 185.6 199.4 189.6 203.4C193.6 207.4 198.4 209.4 204 209.4Z" fill="#323238"/>
<path d="M280 190.62H304V187.02H280V190.62ZM292 213C288.6 213 285.44 212.39 282.52 211.17C279.6 209.95 277.06 208.26 274.9 206.1C272.74 203.94 271.05 201.4 269.83 198.48C268.61 195.56 268 192.4 268 189C268 185.64 268.61 182.5 269.83 179.58C271.05 176.66 272.74 174.12 274.9 171.96C277.06 169.8 279.6 168.1 282.52 166.86C285.44 165.62 288.6 165 292 165C295.36 165 298.5 165.62 301.42 166.86C304.34 168.1 306.88 169.8 309.04 171.96C311.2 174.12 312.9 176.66 314.14 179.58C315.38 182.5 316 185.64 316 189C316 192.4 315.38 195.56 314.14 198.48C312.9 201.4 311.2 203.94 309.04 206.1C306.88 208.26 304.34 209.95 301.42 211.17C298.5 212.39 295.36 213 292 213ZM292 209.4C297.8 209.4 302.65 207.45 306.55 203.55C310.45 199.65 312.4 194.8 312.4 189C312.4 183.2 310.45 178.35 306.55 174.45C302.65 170.55 297.8 168.6 292 168.6C286.2 168.6 281.35 170.55 277.45 174.45C273.55 178.35 271.6 183.2 271.6 189C271.6 194.8 273.55 199.65 277.45 203.55C281.35 207.45 286.2 209.4 292 209.4Z" fill="#323238"/>
</svg>
